Coordinates
version=1
nRows=8
nColumns=46
inDegrees=yes

Units are S.I. units (second, meters, Newtons, ...)
Angles are in degrees.

endheader
time	pelvis_tilt	pelvis_list	pelvis_rotation	pelvis_tx	pelvis_ty	pelvis_tz	bb_angle	bb_tx	bb_ty	bb_tz	hip_flexion_r	hip_adduction_r	hip_rotation_r	knee_angle_r	knee_angle_r_beta	ankle_angle_r	subtalar_angle_r	mtp_angle_r	crank_angle_r	hip_flexion_l	hip_adduction_l	hip_rotation_l	knee_angle_l	knee_angle_l_beta	ankle_angle_l	subtalar_angle_l	mtp_angle_l	crank_angle_l	lumbar_extension	lumbar_bending	lumbar_rotation	arm_flex_r	arm_add_r	arm_rot_r	elbow_flex_r	pro_sup_r	wrist_flex_r	wrist_dev_r	arm_flex_l	arm_add_l	arm_rot_l	elbow_flex_l	pro_sup_l	wrist_flex_l	wrist_dev_l
      7.50500000	    -30.10201812	    -10.17321144	     -7.05710787	      0.45094803	      1.19518755	     -0.22662372	      0.00000000	      0.50000000	      0.00000000	      0.25000000	     81.19358000	      0.30460708	    -11.37246609	    102.78028708	      1.79385442	    -19.98176444	     -7.55406312	      0.00000000	      0.00000000	     28.17462360	    -17.39713362	     -4.51961231	     18.21957689	      0.31799161	    -16.47924160	     -0.96057263	      0.00000000	      0.00000000	    -66.00695508	      8.96247921	      2.28021402	     78.90406178	    -10.51191508	     50.29266369	     67.46580549	     58.94898538	      0.00000000	      0.00000000	     29.48726223	    -40.12566994	     -1.61937058	    106.60278875	     54.98619919	      0.00000000	      0.00000000
      7.51000000	    -30.03466790	     -9.78525748	     -7.66860550	      0.45111542	      1.19624739	     -0.22616210	      0.00000000	      0.50000000	      0.00000000	      0.25000000	     82.00817601	      0.62542943	    -11.05919550	    102.56076924	      1.79002311	    -20.12018424	     -7.75498868	      0.00000000	      0.00000000	     27.47282898	    -17.36826175	     -5.35184733	     18.60812201	      0.32477300	    -16.66801922	     -0.89551522	      0.00000000	      0.00000000	    -66.20990918	      8.74454458	      2.53595009	     79.29666356	    -10.35089068	     50.38196958	     67.57615286	     58.96445868	      0.00000000	      0.00000000	     29.60300343	    -40.34298665	     -1.40818369	    106.14977941	     54.94456719	      0.00000000	      0.00000000
      7.51500000	    -29.82221631	     -9.39734721	     -8.36447581	      0.45173781	      1.19774848	     -0.22548095	      0.00000000	      0.50000000	      0.00000000	      0.25000000	     82.54193376	      1.08112118	    -10.74778357	    102.19739932	      1.78368111	    -20.39235515	     -8.04270410	      0.00000000	      0.00000000	     26.71197783	    -17.45185061	     -6.57947489	     19.28743364	      0.33662922	    -16.51189619	     -0.10476541	      0.00000000	      0.00000000	    -66.51203313	      8.33076592	      2.81767909	     79.54178417	    -10.38011380	     50.77038512	     67.56591347	     58.99349578	      0.00000000	      0.00000000	     30.03445237	    -40.59602880	     -0.88809724	    105.36193842	     54.89594754	      0.00000000	      0.00000000
      7.52000000	    -29.81729103	     -9.12299154	     -8.98874540	      0.45217990	      1.19903622	     -0.22519294	      0.00000000	      0.50000000	      0.00000000	      0.25000000	     83.14375014	      1.47233564	    -10.56079371	    101.67783031	      1.77461292	    -20.43939877	     -7.99601456	      0.00000000	      0.00000000	     26.43972554	    -17.56746693	     -7.35190538	     20.33951394	      0.35499149	    -16.50499998	     -0.13678224	      0.00000000	      0.00000000	    -66.73814036	      8.11626073	      3.16392375	     79.88646825	    -10.29540969	     50.85755766	     67.70017218	     59.01102762	      0.00000000	      0.00000000	     30.24136414	    -40.57149136	     -0.76337608	    104.99948763	     54.86137772	      0.00000000	      0.00000000
      7.52500000	    -29.90467739	     -9.03237781	     -9.49904619	      0.45219280	      1.20034591	     -0.22466414	      0.00000000	      0.50000000	      0.00000000	      0.25000000	     83.60064158	      1.76476837	    -10.73443428	    100.92345999	      1.76144667	    -20.42335505	     -8.15942212	      0.00000000	      0.00000000	     26.63571317	    -17.94392940	     -7.89384774	     21.96965460	      0.38344281	    -16.09936352	      0.46212221	      0.00000000	      0.00000000	    -66.88272894	      8.06104077	      3.68334729	     80.21271617	    -10.43156075	     51.18690867	     67.86338052	     59.05299784	      0.00000000	      0.00000000	     30.64474886	    -40.37236889	     -0.45023802	    104.29495072	     54.81169106	      0.00000000	      0.00000000
      7.53000000	    -29.99808172	     -8.87357586	     -9.89930080	      0.45185272	      1.20202290	     -0.22401398	      0.00000000	      0.50000000	      0.00000000	      0.25000000	     83.88973326	      2.09383364	    -10.76496298	     99.97356139	      1.74486781	    -20.19951579	     -8.17009769	      0.00000000	      0.00000000	     27.02371152	    -18.16247322	     -8.01201020	     23.74324292	      0.41439776	    -16.00427134	      0.25624000	      0.00000000	      0.00000000	    -67.09684939	      7.97528273	      4.03954040	     80.53726850	    -10.39766107	     51.22586239	     68.10319880	     59.07234357	      0.00000000	      0.00000000	     31.00643022	    -40.38886576	     -0.30606540	    103.86053132	     54.77745748	      0.00000000	      0.00000000
      7.53500000	    -30.09599242	     -8.70107432	    -10.30485690	      0.45179558	      1.20365249	     -0.22338916	      0.00000000	      0.50000000	      0.00000000	      0.25000000	     84.01475040	      2.54602957	    -10.66483548	     98.89939902	      1.72612014	    -19.62262792	     -8.10337338	      0.00000000	      0.00000000	     27.55819848	    -18.39993526	     -8.17153657	     25.78160931	      0.44997397	    -15.87552276	      0.08775177	      0.00000000	      0.00000000	    -67.32043563	      7.87054894	      4.39619458	     80.84135705	    -10.40504627	     51.29533702	     68.38100095	     59.09761884	      0.00000000	      0.00000000	     31.27907997	    -40.23032185	     -0.11761376	    103.39829645	     54.75624752	      0.00000000	      0.00000000
      7.54000000	    -30.26638598	     -8.50381975	    -10.81982874	      0.45190165	      1.20537146	     -0.22270779	      0.00000000	      0.50000000	      0.00000000	      0.25000000	     84.04258844	      3.05690749	    -10.54433051	     97.66911019	      1.70464755	    -18.90310980	     -7.79128203	      0.00000000	      0.00000000	     28.23184964	    -18.65844747	     -8.32042169	     27.94110421	      0.48766427	    -15.91285679	     -0.31229204	      0.00000000	      0.00000000	    -67.52582306	      7.63577106	      4.75832363	     81.04547849	    -10.39096988	     51.22707649	     68.70263666	     59.11591882	      0.00000000	      0.00000000	     31.53441463	    -40.09578497	     -0.12793359	    103.15250524	     54.74092720	      0.00000000	      0.00000000
